<svg width="22" height="22" viewBox="0 0 22 22" fill="none" xmlns="http://www.w3.org/2000/svg">
<path d="M21.2406 12.229C21.4687 12.1146 21.6605 11.9391 21.7945 11.722C21.9285 11.5049 21.9995 11.2548 21.9995 10.9997C21.9995 10.7446 21.9285 10.4945 21.7945 10.2774C21.6605 10.0603 21.4687 9.88476 21.2406 9.77044L1.9904 0.145342C1.75172 0.0259131 1.48343 -0.0214688 1.21828 0.00897588C0.95312 0.0394205 0.702558 0.146376 0.497152 0.316794C0.291746 0.487212 0.140379 0.713727 0.061512 0.968705C-0.0173547 1.22368 -0.0203098 1.4961 0.0530071 1.75273L2.0179 8.6278C2.10009 8.91515 2.27366 9.16789 2.51234 9.34777C2.75101 9.52764 3.0418 9.62486 3.34066 9.62469L9.62585 9.62469C9.99053 9.62469 10.3403 9.76956 10.5981 10.0274C10.856 10.2853 11.0009 10.635 11.0009 10.9997C11.0009 11.3644 10.856 11.7141 10.5981 11.972C10.3403 12.2298 9.99053 12.3747 9.62585 12.3747L3.34066 12.3747C3.0418 12.3746 2.75101 12.4718 2.51234 12.6516C2.27366 12.8315 2.10009 13.0843 2.0179 13.3716L0.0543804 20.2467C-0.0190818 20.5032 -0.0163021 20.7756 0.0623779 21.0306C0.141058 21.2856 0.292239 21.5122 0.497484 21.6827C0.70273 21.8533 0.953169 21.9604 1.21826 21.9911C1.48335 22.0218 1.75164 21.9746 1.9904 21.8554L21.2406 12.2303V12.229Z" fill="white"/>
</svg>
