<svg width="22" height="22" viewBox="0 0 22 22" fill="none" xmlns="http://www.w3.org/2000/svg">
<path fill-rule="evenodd" clip-rule="evenodd" d="M13.8106 15.3415C13.8106 15.5603 13.7237 15.7702 13.5689 15.9249C13.4142 16.0796 13.2044 16.1665 12.9856 16.1665C12.7668 16.1665 12.5569 16.0796 12.4022 15.9249C12.2475 15.7702 12.1606 15.5603 12.1606 15.3415V10.7527C12.1606 10.5339 12.2475 10.324 12.4022 10.1693C12.5569 10.0146 12.7668 9.92768 12.9856 9.92768C13.2044 9.92768 13.4142 10.0146 13.5689 10.1693C13.7237 10.324 13.8106 10.5339 13.8106 10.7527V15.3415ZM10.022 15.3415C10.022 15.5603 9.93508 15.7702 9.78036 15.9249C9.62564 16.0796 9.4158 16.1665 9.197 16.1665C8.97819 16.1665 8.76835 16.0796 8.61363 15.9249C8.45892 15.7702 8.372 15.5603 8.372 15.3415V10.7527C8.372 10.5339 8.45892 10.324 8.61363 10.1693C8.76835 10.0146 8.97819 9.92768 9.197 9.92768C9.4158 9.92768 9.62564 10.0146 9.78036 10.1693C9.93508 10.324 10.022 10.5339 10.022 10.7527V15.3415ZM8.27666 3.5376C8.27666 3.29448 8.37324 3.06132 8.54515 2.88942C8.71706 2.71751 8.95022 2.62093 9.19333 2.62093H12.992C13.4971 2.62093 13.9087 3.0316 13.9087 3.5376V4.40018H8.27666V3.5376ZM18.6075 4.40018H15.742V3.5376C15.742 2.02143 14.5091 0.787598 12.992 0.787598H9.19333C7.67716 0.787598 6.44333 2.02143 6.44333 3.5376V4.40018H3.39175C3.10001 4.40018 2.82022 4.51607 2.61393 4.72236C2.40764 4.92865 2.29175 5.20844 2.29175 5.50018V6.05018C2.29175 6.34192 2.40764 6.62171 2.61393 6.828C2.82022 7.03429 3.10001 7.15018 3.39175 7.15018H3.51183L3.9445 18.1832C3.967 18.7513 4.20856 19.2886 4.61853 19.6825C5.0285 20.0764 5.57504 20.2963 6.14358 20.2961H16.0399C16.6083 20.2963 17.1546 20.0763 17.5643 19.6824C17.974 19.2884 18.2151 18.7511 18.2372 18.1832L18.6717 7.13735C18.9507 7.12305 19.2137 7.0024 19.4065 6.80019C19.5993 6.59798 19.7074 6.32959 19.7084 6.05018V5.50018C19.7084 4.89335 19.2152 4.40018 18.6075 4.40018Z" fill="#FFFFFF"/>
</svg>
